<svg xmlns="http://www.w3.org/2000/svg" viewBox="0 0 56.87 56.84">
	<defs>
		<style>
			.cls-1 {
				fill: #fff;
			}
			.cls-2 {
				fill: #3c5b9b;
			}
		</style>
	</defs>
	<title>Facebook Icon</title>
	<g id="Layer_4" data-name="Layer 4">
		<path class="cls-1" d="M451.07,621A26.92,26.92,0,1,1,478,594.08,27,27,0,0,1,451.07,621Z" transform="translate(-422.63 -565.66)"/>
		<path class="cls-1" d="M451.07,568.66a25.42,25.42,0,1,1-25.44,25.42,25.46,25.46,0,0,1,25.44-25.42m0-3a28.42,28.42,0,1,0,28.43,28.42,28.46,28.46,0,0,0-28.43-28.42Z" transform="translate(-422.63 -565.66)"/>
	</g>
	<g id="Layer_2" data-name="Layer 2">
		<path class="cls-2" d="M451.07,619.5a25.42,25.42,0,1,1,25.43-25.42A25.46,25.46,0,0,1,451.07,619.5Zm0-47.84a22.42,22.42,0,1,0,22.43,22.42A22.46,22.46,0,0,0,451.07,571.66Z" transform="translate(-422.63 -565.66)"/>
		<path class="cls-2" d="M446.76,610.06h6.59v-16h5.09l.63-5.63h-5.71v-3.5c0-1.24.52-1.35,1.14-1.35H459v-5.48l-5.29,0c-5.88,0-6.92,4.09-6.92,6.7v3.65h-3.69v5.63h3.69Z" transform="translate(-422.63 -565.66)"/>
	</g>
</svg>